<svg width="240" height="29" viewBox="0 0 240 29" fill="none" xmlns="http://www.w3.org/2000/svg">
<g clip-path="url(#clip0_3105_626)">
<path d="M145.749 16.7052C145.603 16.6408 145.438 16.6367 145.289 16.6941C145.141 16.7514 145.021 16.8654 144.957 17.011C144.043 19.0727 142.299 20.3535 140.406 20.3535C137.547 20.3535 135.221 17.4748 135.221 13.9365C135.221 10.3982 137.547 7.51946 140.406 7.51946C142.299 7.51946 144.042 8.80022 144.956 10.8613C145.021 11.007 145.14 11.1211 145.289 11.1785C145.363 11.2069 145.441 11.2206 145.52 11.2187C145.599 11.2168 145.677 11.1993 145.749 11.1674C145.821 11.1354 145.886 11.0896 145.94 11.0325C145.995 10.9753 146.037 10.9081 146.066 10.8345C146.094 10.7608 146.108 10.6824 146.106 10.6035C146.104 10.5246 146.087 10.4469 146.055 10.3747C144.945 7.87269 142.781 6.31799 140.408 6.31799C136.886 6.31799 134.021 9.73555 134.021 13.9365C134.021 18.1374 136.885 21.5549 140.409 21.5549C142.784 21.5549 144.949 20.0002 146.056 17.4976C146.088 17.4254 146.105 17.3477 146.107 17.2688C146.109 17.1899 146.095 17.1114 146.067 17.0378C146.038 16.9642 145.995 16.897 145.941 16.8399C145.886 16.7829 145.821 16.7371 145.749 16.7052Z" fill="#232323"/>
<path d="M78.2819 6.30226C78.1936 6.30178 78.1061 6.31875 78.0244 6.35219C77.9427 6.38563 77.8683 6.43489 77.8057 6.49713C77.7431 6.55936 77.6934 6.63336 77.6594 6.71486C77.6255 6.79637 77.6079 6.88378 77.6079 6.97207L77.5959 19.4589L69.2643 6.71796C69.1861 6.59818 69.0792 6.49986 68.9533 6.43197C68.8274 6.36408 68.6865 6.32878 68.5434 6.32929H68.4629C68.2356 6.32945 68.0176 6.4198 67.8567 6.58051C67.6959 6.74122 67.6054 6.95917 67.6051 7.18653L67.5967 20.8231C67.5965 20.9113 67.6138 20.9985 67.6474 21.08C67.681 21.1614 67.7304 21.2354 67.7927 21.2978C67.8549 21.3601 67.9289 21.4095 68.0103 21.4432C68.0917 21.4769 68.179 21.4942 68.2671 21.4942C68.445 21.4942 68.6155 21.4235 68.7414 21.2978C68.8672 21.1721 68.938 21.0016 68.9381 20.8237L68.9471 8.31771L77.3664 21.1067C77.4446 21.2253 77.551 21.3227 77.676 21.3901C77.8011 21.4575 77.941 21.4929 78.0831 21.493C78.3104 21.4928 78.5284 21.4024 78.6893 21.2417C78.8501 21.081 78.9406 20.8631 78.9409 20.6357L78.9493 6.97387C78.9496 6.79638 78.8795 6.626 78.7544 6.5001C78.6293 6.3742 78.4594 6.30305 78.2819 6.30226Z" fill="#232323"/>
<path d="M105.227 6.27348C105.138 6.27245 105.049 6.2891 104.967 6.32248C104.884 6.35585 104.809 6.40528 104.745 6.46791C104.682 6.53053 104.632 6.60511 104.597 6.68733C104.563 6.76955 104.545 6.85778 104.545 6.9469L104.542 20.8538C104.542 21.0324 104.613 21.2037 104.739 21.33C104.866 21.4563 105.037 21.5273 105.215 21.5273C105.394 21.5273 105.565 21.4563 105.692 21.33C105.818 21.2037 105.889 21.0324 105.889 20.8538L105.894 6.9469C105.894 6.76939 105.824 6.59909 105.699 6.47301C105.574 6.34692 105.404 6.27522 105.227 6.27348Z" fill="#232323"/>
<path d="M188.245 6.27346C188.157 6.27275 188.068 6.28963 187.986 6.32315C187.904 6.35667 187.829 6.40615 187.766 6.46874C187.702 6.53134 187.652 6.60581 187.618 6.68787C187.584 6.76993 187.566 6.85796 187.566 6.94688L187.563 20.8538C187.563 21.0324 187.634 21.2037 187.76 21.33C187.887 21.4563 188.058 21.5272 188.236 21.5272C188.325 21.5273 188.412 21.51 188.494 21.4762C188.576 21.4424 188.65 21.3929 188.713 21.3304C188.775 21.2679 188.825 21.1937 188.859 21.112C188.892 21.0304 188.91 20.9428 188.91 20.8544L188.915 6.94748C188.915 6.7694 188.845 6.5985 188.719 6.47218C188.594 6.34586 188.424 6.27441 188.245 6.27346Z" fill="#232323"/>
<path d="M220.395 15.8448H217.552C217.479 15.8424 217.406 15.8547 217.338 15.881C217.27 15.9073 217.207 15.9472 217.155 15.9981C217.102 16.049 217.06 16.11 217.032 16.1774C217.003 16.2448 216.988 16.3173 216.988 16.3905C216.988 16.4638 217.003 16.5363 217.032 16.6037C217.06 16.6711 217.102 16.7321 217.155 16.783C217.207 16.8339 217.27 16.8738 217.338 16.9001C217.406 16.9264 217.479 16.9387 217.552 16.9363H220.395C220.468 16.9387 220.541 16.9264 220.609 16.9001C220.677 16.8738 220.74 16.8339 220.792 16.783C220.845 16.7321 220.887 16.6711 220.915 16.6037C220.944 16.5363 220.959 16.4638 220.959 16.3905C220.959 16.3173 220.944 16.2448 220.915 16.1774C220.887 16.11 220.845 16.049 220.792 15.9981C220.74 15.9472 220.677 15.9073 220.609 15.881C220.541 15.8547 220.468 15.8424 220.395 15.8448Z" fill="#232323"/>
<path d="M219.924 6.99309C219.85 6.79788 219.718 6.62988 219.546 6.51135C219.374 6.39282 219.17 6.32935 218.961 6.32935C218.752 6.32935 218.548 6.39282 218.376 6.51135C218.204 6.62988 218.072 6.79788 217.998 6.99309L212.788 20.6387C212.728 20.7945 212.733 20.9676 212.801 21.1199C212.869 21.2723 212.995 21.3913 213.151 21.4509C213.307 21.5105 213.48 21.5057 213.632 21.4377C213.784 21.3696 213.904 21.2439 213.963 21.0881L218.962 8.01073L223.954 21.0863C224 21.2053 224.08 21.3078 224.185 21.3801C224.29 21.4524 224.415 21.4911 224.542 21.4911H224.546C224.648 21.4912 224.748 21.4664 224.838 21.4189C224.929 21.3715 225.006 21.3028 225.064 21.2188C225.122 21.1348 225.158 21.038 225.17 20.9367C225.182 20.8354 225.17 20.7328 225.133 20.6375L219.924 6.99309Z" fill="#232323"/>
<path d="M206.021 6.25671H197.342C197.165 6.25671 196.995 6.32708 196.87 6.45233C196.745 6.57759 196.674 6.74751 196.674 6.92473V6.93554C196.674 7.02345 196.691 7.11049 196.725 7.19169C196.759 7.27288 196.808 7.34665 196.87 7.40875C196.932 7.47085 197.006 7.52007 197.087 7.5536C197.169 7.58714 197.256 7.60431 197.344 7.60416L206.022 7.59334C206.196 7.58813 206.361 7.51544 206.482 7.39067C206.603 7.26591 206.671 7.09889 206.671 6.92503C206.671 6.75117 206.603 6.58415 206.482 6.45939C206.361 6.33462 206.196 6.26192 206.022 6.25671H206.021Z" fill="#232323"/>
<path d="M201.839 8.80969H201.723C201.641 8.80961 201.56 8.82567 201.485 8.85694C201.409 8.88821 201.341 8.93408 201.283 8.99191C201.225 9.04974 201.18 9.11839 201.149 9.19393C201.118 9.26946 201.102 9.35039 201.102 9.43205L201.148 20.8748C201.148 21.0392 201.213 21.1969 201.329 21.3132C201.446 21.4294 201.603 21.4947 201.768 21.4947C201.932 21.4947 202.09 21.4294 202.206 21.3132C202.322 21.1969 202.388 21.0392 202.388 20.8748L202.459 9.43205C202.459 9.35041 202.444 9.2695 202.413 9.19397C202.382 9.11844 202.336 9.04978 202.279 8.99195C202.221 8.93411 202.152 8.88823 202.077 8.85695C202.002 8.82567 201.921 8.80961 201.839 8.80969Z" fill="#232323"/>
<path d="M239.331 20.2243H234.084L234.089 6.94818C234.089 6.76999 234.019 6.59897 233.894 6.47246C233.768 6.34595 233.598 6.27423 233.419 6.27296C233.33 6.27241 233.242 6.28947 233.16 6.32317C233.078 6.35687 233.003 6.40654 232.94 6.46931C232.877 6.53208 232.827 6.60671 232.793 6.6889C232.759 6.77109 232.741 6.85921 232.741 6.94818V20.8852C232.742 21.0659 232.814 21.2391 232.942 21.3674C233.069 21.4956 233.242 21.5688 233.422 21.5712L239.336 21.5616C239.51 21.5564 239.675 21.4836 239.796 21.3587C239.917 21.2339 239.985 21.0667 239.985 20.8927C239.985 20.7186 239.917 20.5515 239.796 20.4266C239.675 20.3017 239.51 20.229 239.336 20.2237L239.331 20.2243Z" fill="#232323"/>
<path d="M171.549 6.28113C171.46 6.28137 171.372 6.29917 171.29 6.33351C171.208 6.36785 171.133 6.41806 171.07 6.48127C171.007 6.54448 170.958 6.61945 170.924 6.70189C170.89 6.78434 170.873 6.87265 170.873 6.96176L170.933 20.8585C170.932 21.0224 170.994 21.1804 171.108 21.2988C171.221 21.4172 171.377 21.4866 171.54 21.4923C171.622 21.4933 171.704 21.478 171.78 21.4471C171.856 21.4163 171.925 21.3707 171.983 21.3128C172.041 21.2549 172.087 21.1861 172.118 21.1102C172.149 21.0344 172.165 20.9531 172.164 20.8711L172.218 6.94975C172.218 6.86185 172.201 6.77477 172.168 6.6935C172.134 6.61224 172.085 6.53841 172.023 6.47626C171.961 6.41411 171.887 6.36487 171.806 6.33138C171.724 6.29789 171.637 6.28081 171.549 6.28113Z" fill="#232323"/>
<path d="M174.968 6.27404H173.984C173.911 6.27256 173.839 6.28577 173.771 6.31289C173.703 6.34 173.641 6.38048 173.589 6.43191C173.537 6.48333 173.496 6.54466 173.469 6.61226C173.441 6.67985 173.427 6.75234 173.428 6.8254C173.429 6.89846 173.444 6.97062 173.473 7.03759C173.503 7.10456 173.545 7.16497 173.598 7.21524C173.651 7.26551 173.714 7.30462 173.782 7.33023C173.85 7.35585 173.923 7.36746 173.996 7.36437L174.826 7.34754C175.918 7.37918 176.752 7.67955 177.329 8.24864C177.906 8.81773 178.195 9.64915 178.195 10.7429C178.195 11.9139 177.902 12.8551 177.317 13.5663C176.731 14.2776 175.885 14.7047 174.778 14.8477L173.944 14.8507C173.809 14.8553 173.681 14.9121 173.587 15.0092C173.493 15.1064 173.441 15.2361 173.441 15.3712C173.441 15.5063 173.493 15.6361 173.587 15.7332C173.681 15.8303 173.809 15.8872 173.944 15.8917H174.064C175.773 15.8917 177.097 15.429 178.039 14.5035C178.98 13.5779 179.45 12.2926 179.45 10.6474C179.45 9.25567 179.063 8.18396 178.288 7.43225C177.515 6.68193 176.408 6.27404 174.968 6.27404Z" fill="#232323"/>
<path d="M96.6844 6.29565H88.005C87.8278 6.29581 87.6578 6.36631 87.5324 6.49166C87.4071 6.61702 87.3366 6.78699 87.3364 6.96427V6.97508C87.3365 7.06296 87.3539 7.14997 87.3876 7.23113C87.4213 7.3123 87.4707 7.38602 87.5329 7.44811C87.595 7.5102 87.6689 7.55943 87.7501 7.59298C87.8313 7.62654 87.9184 7.64377 88.0062 7.6437L96.685 7.63288C96.8623 7.63288 97.0324 7.56244 97.1578 7.43705C97.2832 7.31166 97.3536 7.14159 97.3536 6.96427C97.3536 6.78694 97.2832 6.61688 97.1578 6.49149C97.0324 6.3661 96.8623 6.29565 96.685 6.29565H96.6844Z" fill="#232323"/>
<path d="M92.5018 8.85181H92.3852C92.3035 8.85173 92.2227 8.86778 92.1472 8.89905C92.0718 8.93032 92.0033 8.97619 91.9456 9.03402C91.8879 9.09185 91.8423 9.16051 91.8112 9.23604C91.7802 9.31158 91.7643 9.3925 91.7647 9.47416L91.8097 20.9145C91.8103 21.0785 91.8759 21.2356 91.9921 21.3513C92.1083 21.4671 92.2657 21.532 92.4297 21.532C92.5935 21.5322 92.7507 21.4674 92.8669 21.3519C92.9831 21.2364 93.0488 21.0795 93.0496 20.9157L93.1211 9.47296C93.1213 9.39148 93.1055 9.31074 93.0745 9.23539C93.0435 9.16004 92.9979 9.09155 92.9403 9.03385C92.8828 8.97615 92.8144 8.93036 92.7392 8.89912C92.6639 8.86789 92.5832 8.85181 92.5018 8.85181Z" fill="#232323"/>
<path d="M55.806 16.1974C55.7668 16.0938 55.6969 16.0045 55.6057 15.9415C55.5145 15.8785 55.4062 15.8448 55.2954 15.8448H52.4533C52.3801 15.8424 52.3072 15.8547 52.2389 15.881C52.1705 15.9073 52.1082 15.9472 52.0556 15.9981C52.0029 16.049 51.9611 16.11 51.9325 16.1774C51.9039 16.2448 51.8892 16.3173 51.8892 16.3905C51.8892 16.4638 51.9039 16.5363 51.9325 16.6037C51.9611 16.6711 52.0029 16.7321 52.0556 16.783C52.1082 16.8339 52.1705 16.8738 52.2389 16.9001C52.3072 16.9264 52.3801 16.9387 52.4533 16.9363H55.2954C55.3837 16.9363 55.4707 16.9148 55.5489 16.8738C55.6271 16.8327 55.6942 16.7733 55.7444 16.7007C55.7946 16.628 55.8264 16.5443 55.8372 16.4566C55.8479 16.369 55.8372 16.28 55.806 16.1974Z" fill="#232323"/>
<path d="M54.8252 6.99315C54.7509 6.79831 54.6193 6.63058 54.4477 6.51207C54.2761 6.39357 54.0726 6.32986 53.8641 6.32935C53.6555 6.32994 53.4521 6.39369 53.2805 6.51218C53.1089 6.63068 52.9773 6.79836 52.9029 6.99315L47.6933 20.6388C47.6338 20.7946 47.6385 20.9677 47.7066 21.12C47.7746 21.2723 47.9004 21.3914 48.0562 21.451C48.212 21.5105 48.3851 21.5058 48.5374 21.4377C48.6897 21.3697 48.8088 21.2439 48.8684 21.0881L53.8635 8.01079L58.8555 21.0863C58.9009 21.2054 58.9814 21.3078 59.0863 21.3801C59.1912 21.4524 59.3156 21.4912 59.4431 21.4912C59.545 21.4912 59.6455 21.4664 59.7357 21.4189C59.826 21.3715 59.9034 21.3028 59.9613 21.2188C60.0191 21.1348 60.0557 21.0381 60.0679 20.9368C60.0801 20.8356 60.0675 20.7329 60.0312 20.6376L54.8252 6.99315Z" fill="#232323"/>
<path d="M159.205 16.1976C159.166 16.094 159.096 16.0048 159.005 15.9418C158.914 15.8788 158.806 15.845 158.695 15.845H155.852C155.742 15.845 155.633 15.8787 155.542 15.9417C155.451 16.0047 155.381 16.0939 155.342 16.1976C155.311 16.2802 155.3 16.3692 155.311 16.4568C155.321 16.5445 155.353 16.6282 155.403 16.7009C155.454 16.7735 155.521 16.8329 155.599 16.874C155.677 16.915 155.764 16.9365 155.852 16.9365H158.695C158.783 16.9365 158.87 16.9151 158.949 16.874C159.027 16.833 159.094 16.7736 159.144 16.7009C159.194 16.6282 159.226 16.5444 159.237 16.4568C159.247 16.3691 159.236 16.2802 159.205 16.1976Z" fill="#232323"/>
<path d="M158.225 6.99304C158.15 6.79789 158.018 6.62996 157.846 6.51149C157.674 6.39302 157.47 6.32959 157.261 6.32959C157.053 6.32959 156.849 6.39302 156.676 6.51149C156.504 6.62996 156.372 6.79789 156.298 6.99304L151.088 20.6387C151.034 20.7933 151.043 20.9628 151.112 21.1113C151.181 21.2598 151.305 21.3755 151.458 21.434C151.611 21.4924 151.781 21.489 151.931 21.4244C152.082 21.3598 152.201 21.2391 152.264 21.088L157.263 8.01068L162.255 21.0862C162.3 21.2053 162.381 21.3077 162.485 21.38C162.59 21.4523 162.715 21.4911 162.842 21.4911H162.846C162.948 21.4911 163.048 21.4663 163.139 21.4189C163.229 21.3714 163.306 21.3027 163.364 21.2187C163.422 21.1347 163.458 21.0379 163.47 20.9366C163.482 20.8354 163.47 20.7327 163.433 20.6375L158.225 6.99304Z" fill="#232323"/>
<path d="M26.9398 18.0075C26.8728 17.9839 26.8018 17.9738 26.7309 17.9776C26.66 17.9814 26.5906 17.9992 26.5265 18.0299C26.4625 18.0606 26.4051 18.1036 26.3577 18.1564C26.3103 18.2093 26.2737 18.271 26.2501 18.3379C25.234 21.2202 23.2313 23.6502 20.5963 25.1982C17.9613 26.7463 14.8637 27.3127 11.8514 26.7972C8.8391 26.2817 6.10611 24.7176 4.13578 22.3815C2.16544 20.0454 1.08471 17.0877 1.08471 14.0316C1.08471 10.9755 2.16544 8.01785 4.13578 5.68171C6.10611 3.34558 8.8391 1.78146 11.8514 1.26599C14.8637 0.750519 17.9613 1.3169 20.5963 2.86497C23.2313 4.41303 25.234 6.84305 26.2501 9.72526C26.2979 9.86069 26.3976 9.97158 26.5271 10.0335C26.6567 10.0955 26.8056 10.1035 26.941 10.0557C27.0764 10.0079 27.1873 9.90823 27.2493 9.77867C27.3112 9.64911 27.3192 9.50025 27.2714 9.36482C26.1704 6.2423 24.0006 3.60971 21.1459 1.93262C18.2911 0.255527 14.9352 -0.358019 11.6718 0.200485C8.40825 0.758989 5.44739 2.45356 3.31277 4.98452C1.17816 7.51548 0.00732422 10.7198 0.00732422 14.0307C0.00732422 17.3416 1.17816 20.5459 3.31277 23.0769C5.44739 25.6078 8.40825 27.3024 11.6718 27.8609C14.9352 28.4194 18.2911 27.8059 21.1459 26.1288C24.0006 24.4517 26.1704 21.8191 27.2714 18.6966C27.2949 18.6296 27.3049 18.5586 27.3009 18.4877C27.297 18.4168 27.2791 18.3474 27.2483 18.2834C27.2175 18.2194 27.1744 18.1621 27.1215 18.1148C27.0685 18.0674 27.0068 18.031 26.9398 18.0075Z" fill="#232323"/>
<path d="M17.0394 17.6026C16.9739 17.4773 16.8618 17.3827 16.7274 17.339C16.5929 17.2953 16.4466 17.306 16.32 17.3689C16.1933 17.4318 16.0963 17.5417 16.0498 17.6753C16.0032 17.8088 16.0109 17.9552 16.071 18.0832L17.3055 20.5642C17.3502 20.6543 17.4192 20.7302 17.5046 20.7832C17.59 20.8363 17.6885 20.8645 17.7891 20.8646H21.0331C21.125 20.8645 21.2154 20.8409 21.2957 20.7961C21.376 20.7513 21.4436 20.6868 21.492 20.6086C21.5404 20.5304 21.5681 20.4412 21.5724 20.3493C21.5767 20.2575 21.5575 20.166 21.5166 20.0836L14.5169 6.08661C14.472 5.9968 14.403 5.92126 14.3176 5.86847C14.2322 5.81568 14.1337 5.78772 14.0333 5.78772C13.9329 5.78772 13.8345 5.81568 13.7491 5.86847C13.6637 5.92126 13.5946 5.9968 13.5497 6.08661L6.55243 20.0855C6.51156 20.1678 6.49237 20.2593 6.49669 20.3511C6.501 20.443 6.52868 20.5322 6.57709 20.6104C6.6255 20.6886 6.69305 20.7531 6.77335 20.7979C6.85366 20.8427 6.94406 20.8663 7.03602 20.8664H10.2535C10.3531 20.8661 10.4507 20.8383 10.5355 20.786C10.6204 20.7338 10.6891 20.6591 10.7341 20.5702L11.9921 18.0946C12.03 18.0311 12.0544 17.9604 12.0639 17.887C12.0734 17.8136 12.0677 17.739 12.0472 17.6679C12.0267 17.5968 11.9918 17.5307 11.9447 17.4736C11.8976 17.4165 11.8393 17.3697 11.7733 17.3361C11.7074 17.3024 11.6353 17.2827 11.5614 17.2781C11.4875 17.2735 11.4135 17.2841 11.3439 17.3092C11.2743 17.3344 11.2106 17.3736 11.1568 17.4244C11.1029 17.4751 11.0601 17.5364 11.0309 17.6044L9.92193 19.7851H7.91128L14.0351 7.53617L20.1596 19.7851H18.1243L17.0394 17.6026Z" fill="#232323"/>
<path d="M14.8806 13.6132H13.1901C13.0796 13.6127 12.9711 13.6433 12.8771 13.7015C12.7831 13.7597 12.7073 13.8432 12.6585 13.9424L12.2674 14.7263C12.2096 14.8398 12.1901 14.9689 12.2117 15.0944C12.2334 15.2199 12.2951 15.335 12.3876 15.4226L13.6359 16.6066C13.7461 16.7114 13.8923 16.7698 14.0444 16.7698C14.1964 16.7698 14.3427 16.7114 14.4529 16.6066L15.6898 15.437C15.7837 15.3501 15.8469 15.2351 15.8698 15.1092C15.8928 14.9833 15.8743 14.8534 15.8171 14.7389L15.414 13.94C15.3645 13.8411 15.2883 13.7581 15.194 13.7003C15.0997 13.6425 14.9912 13.6124 14.8806 13.6132ZM14.0474 15.5043L13.3956 14.8861L13.4917 14.6945H14.5808L14.6853 14.9011L14.0474 15.5043Z" fill="#232323"/>
</g>
<defs>
<clipPath id="clip0_3105_626">
<rect width="240" height="28.0644" fill="white"/>
</clipPath>
</defs>
</svg>
